<svg width="12" height="14" viewBox="0 0 12 14" fill="none" xmlns="http://www.w3.org/2000/svg">
<path d="M9.77181 10.2286C9.1474 10.853 7.84161 12.1588 6.9431 13.0573C6.4224 13.578 5.57902 13.5783 5.05832 13.0576C4.17546 12.1747 2.89496 10.8942 2.22933 10.2286C0.146537 8.1458 0.146537 4.76892 2.22933 2.68612C4.31213 0.603324 7.68901 0.603324 9.77181 2.68612C11.8546 4.76892 11.8546 8.1458 9.77181 10.2286Z" stroke="#6318AF" stroke-linecap="round" stroke-linejoin="round"/>
<path d="M8.00057 6.45736C8.00057 7.56193 7.10514 8.45736 6.00057 8.45736C4.896 8.45736 4.00057 7.56193 4.00057 6.45736C4.00057 5.35279 4.896 4.45736 6.00057 4.45736C7.10514 4.45736 8.00057 5.35279 8.00057 6.45736Z" stroke="#6318AF" stroke-linecap="round" stroke-linejoin="round"/>
</svg>
