<svg width="180" height="100" viewBox="0 0 180 100" fill="none" xmlns="http://www.w3.org/2000/svg">
<rect opacity="0.1" x="42.5" y="0.5" width="23" height="7" rx="3.5" fill="#6318AF" stroke="#6318AF"/>
<rect opacity="0.1" x="78.5" y="0.5" width="23" height="7" rx="3.5" fill="#6318AF" stroke="#6318AF"/>
<rect x="114.5" y="0.5" width="23" height="7" rx="3.5" fill="#6318AF" stroke="#6318AF"/>
<rect y="40" width="180" height="60" rx="30" fill="#E0D4EC"/>
<rect x="130.5" y="49.5" width="41" height="41" rx="20.5" fill="#6017AA"/>
<rect x="130.5" y="49.5" width="41" height="41" rx="20.5" stroke="white"/>
<path d="M152.792 63.75L159.25 70M159.25 70L152.792 76.25M159.25 70L143.75 70" stroke="#FCFFF7" stroke-width="2.5" stroke-linecap="round" stroke-linejoin="round"/>
<path d="M29.576 76.16C28.7653 76.16 28.008 76.016 27.304 75.728C26.6 75.4293 25.9813 75.0187 25.448 74.496C24.9147 73.9733 24.4987 73.3653 24.2 72.672C23.912 71.968 23.768 71.2107 23.768 70.4C23.768 69.6 23.912 68.8533 24.2 68.16C24.4987 67.4667 24.9093 66.864 25.432 66.352C25.9653 65.8293 26.584 65.424 27.288 65.136C27.992 64.848 28.7493 64.704 29.56 64.704C30.1253 64.704 30.6747 64.784 31.208 64.944C31.752 65.104 32.2427 65.328 32.68 65.616C33.1173 65.904 33.4747 66.2347 33.752 66.608L32.632 67.776C32.312 67.4667 31.9813 67.2107 31.64 67.008C31.3093 66.8053 30.968 66.6507 30.616 66.544C30.264 66.4373 29.912 66.384 29.56 66.384C28.984 66.384 28.4507 66.4853 27.96 66.688C27.48 66.8907 27.0533 67.1733 26.68 67.536C26.3173 67.8987 26.0347 68.3253 25.832 68.816C25.6293 69.296 25.528 69.824 25.528 70.4C25.528 70.9547 25.6347 71.4827 25.848 71.984C26.0613 72.4747 26.3547 72.9067 26.728 73.28C27.112 73.6533 27.5493 73.9467 28.04 74.16C28.5413 74.3733 29.0693 74.48 29.624 74.48C30.04 74.48 30.4347 74.4213 30.808 74.304C31.1813 74.176 31.512 74 31.8 73.776C32.088 73.552 32.312 73.296 32.472 73.008C32.632 72.7093 32.712 72.3947 32.712 72.064V71.744L32.952 71.968H29.528V70.256H34.488C34.5093 70.3733 34.5253 70.4907 34.536 70.608C34.5467 70.7147 34.552 70.8213 34.552 70.928C34.5627 71.024 34.568 71.12 34.568 71.216C34.568 71.952 34.44 72.624 34.184 73.232C33.928 73.8293 33.5707 74.3467 33.112 74.784C32.664 75.2213 32.136 75.5627 31.528 75.808C30.9307 76.0427 30.28 76.16 29.576 76.16ZM40.322 76.16C39.458 76.16 38.69 75.9787 38.018 75.616C37.3567 75.2427 36.834 74.736 36.45 74.096C36.0767 73.456 35.89 72.72 35.89 71.888C35.89 71.2267 35.9967 70.624 36.21 70.08C36.4233 69.536 36.7167 69.0667 37.09 68.672C37.474 68.2667 37.9273 67.9573 38.45 67.744C38.9833 67.52 39.5593 67.408 40.178 67.408C40.722 67.408 41.2287 67.5147 41.698 67.728C42.1673 67.9307 42.5727 68.2133 42.914 68.576C43.266 68.9387 43.5327 69.3707 43.714 69.872C43.906 70.3627 43.9967 70.9013 43.986 71.488L43.97 72.192H37.106L36.738 70.88H42.546L42.306 71.152V70.768C42.274 70.416 42.1567 70.1013 41.954 69.824C41.7513 69.5467 41.4953 69.328 41.186 69.168C40.8767 69.008 40.5407 68.928 40.178 68.928C39.602 68.928 39.1167 69.04 38.722 69.264C38.3273 69.4773 38.0287 69.7973 37.826 70.224C37.6233 70.64 37.522 71.1573 37.522 71.776C37.522 72.3627 37.6447 72.8747 37.89 73.312C38.1353 73.7387 38.482 74.0693 38.93 74.304C39.378 74.5387 39.8953 74.656 40.482 74.656C40.898 74.656 41.282 74.5867 41.634 74.448C41.9967 74.3093 42.386 74.0587 42.802 73.696L43.634 74.864C43.378 75.12 43.0633 75.344 42.69 75.536C42.3273 75.728 41.938 75.8827 41.522 76C41.1167 76.1067 40.7167 76.16 40.322 76.16ZM46.817 76V65.456H48.465V76H46.817ZM45.073 69.2V67.6H50.417V69.2H45.073ZM60.274 76.16C59.666 76.16 59.1007 76.08 58.578 75.92C58.066 75.76 57.5967 75.52 57.17 75.2C56.754 74.8693 56.3807 74.464 56.05 73.984L57.234 72.624C57.7567 73.3707 58.258 73.888 58.738 74.176C59.218 74.464 59.7887 74.608 60.45 74.608C60.8553 74.608 61.2233 74.544 61.554 74.416C61.8847 74.288 62.146 74.112 62.338 73.888C62.53 73.664 62.626 73.408 62.626 73.12C62.626 72.928 62.594 72.7467 62.53 72.576C62.466 72.4053 62.3647 72.2507 62.226 72.112C62.098 71.9733 61.9273 71.8453 61.714 71.728C61.5113 71.6107 61.2713 71.5093 60.994 71.424C60.7167 71.328 60.3967 71.248 60.034 71.184C59.458 71.0667 58.9567 70.912 58.53 70.72C58.1033 70.528 57.746 70.288 57.458 70C57.17 69.712 56.9567 69.3867 56.818 69.024C56.6793 68.6507 56.61 68.2347 56.61 67.776C56.61 67.328 56.706 66.912 56.898 66.528C57.1007 66.144 57.3727 65.8133 57.714 65.536C58.066 65.248 58.4767 65.0293 58.946 64.88C59.4153 64.72 59.922 64.64 60.466 64.64C61.042 64.64 61.57 64.7147 62.05 64.864C62.53 65.0133 62.9567 65.2373 63.33 65.536C63.7033 65.824 64.0127 66.1813 64.258 66.608L63.042 67.808C62.8287 67.456 62.5887 67.1627 62.322 66.928C62.0553 66.6827 61.762 66.5013 61.442 66.384C61.122 66.256 60.7807 66.192 60.418 66.192C60.002 66.192 59.6393 66.256 59.33 66.384C59.0207 66.512 58.7753 66.6933 58.594 66.928C58.4233 67.152 58.338 67.4187 58.338 67.728C58.338 67.952 58.3807 68.16 58.466 68.352C58.5513 68.5333 58.6793 68.6987 58.85 68.848C59.0313 68.9867 59.2713 69.1147 59.57 69.232C59.8687 69.3387 60.226 69.4347 60.642 69.52C61.2287 69.648 61.7513 69.8133 62.21 70.016C62.6687 70.208 63.058 70.4373 63.378 70.704C63.698 70.9707 63.938 71.2693 64.098 71.6C64.2687 71.9307 64.354 72.288 64.354 72.672C64.354 73.3867 64.1887 74.0053 63.858 74.528C63.5273 75.0507 63.058 75.456 62.45 75.744C61.842 76.0213 61.1167 76.16 60.274 76.16ZM67.4264 76V65.456H69.0744V76H67.4264ZM65.6824 69.2V67.6H71.0264V69.2H65.6824ZM75.6809 76.16C74.9875 76.16 74.3529 75.968 73.7769 75.584C73.2115 75.2 72.7582 74.6773 72.4169 74.016C72.0755 73.3547 71.9049 72.608 71.9049 71.776C71.9049 70.9333 72.0755 70.1867 72.4169 69.536C72.7689 68.8747 73.2382 68.3573 73.8249 67.984C74.4222 67.6107 75.0889 67.424 75.8249 67.424C76.2622 67.424 76.6622 67.488 77.0249 67.616C77.3875 67.744 77.7022 67.9253 77.9689 68.16C78.2462 68.384 78.4702 68.6453 78.6409 68.944C78.8222 69.2427 78.9342 69.5627 78.9769 69.904L78.6089 69.776V67.6H80.2729V76H78.6089V74L78.9929 73.888C78.9289 74.176 78.7955 74.4587 78.5929 74.736C78.4009 75.0027 78.1502 75.2427 77.8409 75.456C77.5422 75.6693 77.2062 75.84 76.8329 75.968C76.4702 76.096 76.0862 76.16 75.6809 76.16ZM76.1129 74.64C76.6142 74.64 77.0569 74.5173 77.4409 74.272C77.8249 74.0267 78.1235 73.6907 78.3369 73.264C78.5609 72.8267 78.6729 72.3307 78.6729 71.776C78.6729 71.232 78.5609 70.7467 78.3369 70.32C78.1235 69.8933 77.8249 69.5573 77.4409 69.312C77.0569 69.0667 76.6142 68.944 76.1129 68.944C75.6222 68.944 75.1849 69.0667 74.8009 69.312C74.4275 69.5573 74.1289 69.8933 73.9049 70.32C73.6915 70.7467 73.5849 71.232 73.5849 71.776C73.5849 72.3307 73.6915 72.8267 73.9049 73.264C74.1289 73.6907 74.4275 74.0267 74.8009 74.272C75.1849 74.5173 75.6222 74.64 76.1129 74.64ZM82.5739 76V67.6H84.2379V70.24L84.0779 69.6C84.1952 69.1947 84.3925 68.8267 84.6699 68.496C84.9579 68.1653 85.2832 67.904 85.6459 67.712C86.0192 67.52 86.4032 67.424 86.7979 67.424C86.9792 67.424 87.1499 67.44 87.3099 67.472C87.4805 67.504 87.6139 67.5413 87.7099 67.584L87.2779 69.376C87.1499 69.3227 87.0059 69.28 86.8459 69.248C86.6965 69.2053 86.5472 69.184 86.3979 69.184C86.1099 69.184 85.8325 69.2427 85.5659 69.36C85.3099 69.4667 85.0805 69.6213 84.8779 69.824C84.6859 70.016 84.5312 70.2453 84.4139 70.512C84.2965 70.768 84.2379 71.0507 84.2379 71.36V76H82.5739ZM90.3795 76V65.456H92.0275V76H90.3795ZM88.6355 69.2V67.6H93.9795V69.2H88.6355ZM99.322 76.16C98.458 76.16 97.69 75.9787 97.018 75.616C96.3567 75.2427 95.834 74.736 95.45 74.096C95.0767 73.456 94.89 72.72 94.89 71.888C94.89 71.2267 94.9967 70.624 95.21 70.08C95.4233 69.536 95.7167 69.0667 96.09 68.672C96.474 68.2667 96.9273 67.9573 97.45 67.744C97.9833 67.52 98.5593 67.408 99.178 67.408C99.722 67.408 100.229 67.5147 100.698 67.728C101.167 67.9307 101.573 68.2133 101.914 68.576C102.266 68.9387 102.533 69.3707 102.714 69.872C102.906 70.3627 102.997 70.9013 102.986 71.488L102.97 72.192H96.106L95.738 70.88H101.546L101.306 71.152V70.768C101.274 70.416 101.157 70.1013 100.954 69.824C100.751 69.5467 100.495 69.328 100.186 69.168C99.8767 69.008 99.5407 68.928 99.178 68.928C98.602 68.928 98.1167 69.04 97.722 69.264C97.3273 69.4773 97.0287 69.7973 96.826 70.224C96.6233 70.64 96.522 71.1573 96.522 71.776C96.522 72.3627 96.6447 72.8747 96.89 73.312C97.1353 73.7387 97.482 74.0693 97.93 74.304C98.378 74.5387 98.8953 74.656 99.482 74.656C99.898 74.656 100.282 74.5867 100.634 74.448C100.997 74.3093 101.386 74.0587 101.802 73.696L102.634 74.864C102.378 75.12 102.063 75.344 101.69 75.536C101.327 75.728 100.938 75.8827 100.522 76C100.117 76.1067 99.7167 76.16 99.322 76.16ZM108.281 76.16C107.513 76.16 106.825 75.9733 106.217 75.6C105.62 75.216 105.145 74.6987 104.793 74.048C104.441 73.3867 104.265 72.6347 104.265 71.792C104.265 70.9493 104.436 70.2027 104.777 69.552C105.129 68.8907 105.604 68.3733 106.201 68C106.798 67.616 107.476 67.424 108.233 67.424C108.649 67.424 109.049 67.4933 109.433 67.632C109.828 67.76 110.18 67.9413 110.489 68.176C110.798 68.4 111.038 68.6507 111.209 68.928C111.39 69.1947 111.481 69.4667 111.481 69.744L111.001 69.776V64.16H112.649V76H111.001V74H111.321C111.321 74.256 111.236 74.512 111.065 74.768C110.894 75.0133 110.665 75.2427 110.377 75.456C110.1 75.6693 109.774 75.84 109.401 75.968C109.038 76.096 108.665 76.16 108.281 76.16ZM108.505 74.736C109.006 74.736 109.449 74.608 109.833 74.352C110.217 74.096 110.516 73.7493 110.729 73.312C110.953 72.864 111.065 72.3573 111.065 71.792C111.065 71.2267 110.953 70.7253 110.729 70.288C110.516 69.84 110.217 69.488 109.833 69.232C109.449 68.976 109.006 68.848 108.505 68.848C108.004 68.848 107.561 68.976 107.177 69.232C106.793 69.488 106.489 69.84 106.265 70.288C106.052 70.7253 105.945 71.2267 105.945 71.792C105.945 72.3573 106.052 72.864 106.265 73.312C106.489 73.7493 106.793 74.096 107.177 74.352C107.561 74.608 108.004 74.736 108.505 74.736Z" fill="#6318AF"/>
</svg>
