<svg width="242" height="242" viewBox="0 0 242 242" fill="none" xmlns="http://www.w3.org/2000/svg">
<g clip-path="url(#clip0_1_3579)">
<rect width="242" height="242" rx="121" fill="#EAE6EE"/>
<path d="M131.973 89.8402C132.575 89.8402 140.722 91.1998 140.722 91.1998L151.744 105.086L153.404 107.716L138.537 117.222L131.973 107.504L126.401 103.882C127.231 103.249 128.219 102.856 129.257 102.748C130.295 102.64 131.343 102.82 132.285 103.269C134.482 104.193 136.845 104.656 139.228 104.629L137.267 99.0567L131.227 97.8531L131.973 89.8402Z" fill="#EB996E"/>
<path d="M132.665 80.1241C132.896 80.0635 133.138 80.0523 133.373 80.0911C133.609 80.1298 133.834 80.2178 134.034 80.3491C134.234 80.4805 134.403 80.6523 134.532 80.8535C134.661 81.0548 134.747 81.2808 134.782 81.5171C135.685 87.212 138.416 104.352 139.24 109.378C139.31 109.779 139.227 110.19 139.009 110.533C138.79 110.875 138.451 111.123 138.059 111.228L124.942 114.895C124.716 114.959 124.478 114.974 124.245 114.938C124.013 114.902 123.791 114.816 123.595 114.685C123.399 114.555 123.233 114.384 123.11 114.183C122.987 113.983 122.908 113.758 122.88 113.524L119.292 85.0722C119.238 84.6559 119.339 84.2343 119.575 83.8872C119.811 83.5401 120.166 83.2917 120.573 83.1888L132.665 80.1241Z" fill="#263238"/>
<path d="M123.86 111.383L137.233 107.65L133.69 83.979C133.642 83.6602 133.528 83.3549 133.355 83.0833C133.181 82.8117 132.952 82.5798 132.683 82.403C132.413 82.2262 132.11 82.1084 131.791 82.0573C131.473 82.0062 131.148 82.0231 130.837 82.1067L120.127 84.9486L123.86 111.383Z" fill="#EBEBEB"/>
<path d="M136.955 94.0646L130.948 98.5224C130.948 98.5224 131.449 100.105 132.363 100.216C134.31 99.9619 136.233 99.5519 138.114 98.9905L136.955 94.0646Z" fill="#EB996E"/>
<path d="M136.231 90.4664L129.934 93.2303C129.934 93.2303 129.533 95.2809 131.885 94.9911L129.778 96.5068C129.778 96.5068 130.302 97.4206 132.932 97.5321C135.562 97.6435 138.114 93.9881 138.114 93.9881L136.231 90.4664Z" fill="#EB996E"/>
<path d="M142.483 97.4757C142.483 97.5537 141.714 97.4088 140.878 96.6287C140.418 96.1977 139.934 95.7921 139.43 95.414C139.146 95.2053 138.814 95.0732 138.464 95.0302C138.115 94.9873 137.76 95.035 137.435 95.1688C135.687 96.1755 133.86 97.0401 131.974 97.7543C133.604 96.5162 135.369 95.4657 137.234 94.6227C137.661 94.4488 138.127 94.3949 138.583 94.4667C138.985 94.5613 139.364 94.7356 139.697 94.9793C140.219 95.3815 140.697 95.8372 141.124 96.339C141.55 96.749 142.004 97.1288 142.483 97.4757Z" fill="#D1734A"/>
<path d="M141.246 113.169C140.167 111.865 139.496 110.272 139.318 108.589C139.139 106.906 139.461 105.208 140.243 103.707C139.938 105.292 139.822 106.909 139.898 108.521C140.16 110.119 140.612 111.679 141.246 113.169Z" fill="#D1734A"/>
<path d="M140.466 93.2388C140.388 93.3056 140.054 92.8264 139.252 92.5701C138.178 92.2705 137.031 92.4025 136.053 92.9379C134.872 93.5063 133.824 94.2306 132.988 94.5761C132.153 94.9216 131.562 94.9996 131.551 94.9327C131.54 94.8659 132.041 94.6653 132.799 94.2084C133.557 93.7514 134.538 93.0159 135.819 92.4141C136.424 92.1114 137.083 91.9332 137.758 91.8903C138.321 91.8573 138.883 91.9605 139.397 92.1912C140.232 92.6035 140.466 93.2165 140.466 93.2388Z" fill="#D1734A"/>
<path d="M139.942 132.727L172.696 153.757L164.014 178.587C164.014 178.587 141.602 171.666 142.015 170.942C142.427 170.217 139.942 132.727 139.942 132.727Z" fill="#6318AF"/>
<path d="M85.568 73.5028L90.3713 129.225L118.233 126.996C118.4 123.742 118.166 111.149 118.166 111.149C118.166 111.149 129.767 109.344 129.912 97.7755C129.979 92.1364 129.176 80.5015 128.33 70.0145C127.893 64.4163 125.279 59.2122 121.05 55.5183C116.821 51.8245 111.312 49.9351 105.706 50.2553C102.844 50.4221 100.045 51.1606 97.4726 52.4271C94.9006 53.6936 92.6085 55.4626 90.7314 57.6295C88.8543 59.7964 87.4303 62.3174 86.5435 65.0436C85.6567 67.7699 85.325 70.6462 85.568 73.5028Z" fill="#EB996E"/>
<path d="M118.177 110.939C112.821 111.036 107.557 109.539 103.054 106.637C103.054 106.637 106.631 114.985 118.199 113.937L118.177 110.939Z" fill="#D1734A"/>
<path d="M123.861 78.1168C123.864 78.5497 123.698 78.9666 123.399 79.2789C123.099 79.5911 122.689 79.774 122.256 79.7885C122.046 79.8052 121.834 79.7795 121.633 79.713C121.433 79.6465 121.248 79.5406 121.089 79.4014C120.93 79.2622 120.801 79.0926 120.708 78.9026C120.616 78.7127 120.562 78.5061 120.551 78.2952C120.548 77.8642 120.712 77.4488 121.01 77.1369C121.307 76.8249 121.714 76.6408 122.145 76.6235C122.356 76.6068 122.568 76.6324 122.77 76.6987C122.971 76.7651 123.157 76.8709 123.316 77.0099C123.476 77.149 123.607 77.3185 123.7 77.5085C123.794 77.6986 123.849 77.9054 123.861 78.1168Z" fill="#263238"/>
<path d="M125.868 75.7776C125.667 76.0005 124.408 75.0644 122.625 75.0755C120.841 75.0867 119.538 75.9671 119.348 75.7554C119.159 75.5436 119.46 75.265 120.028 74.8526C120.801 74.3195 121.719 74.0356 122.658 74.0391C123.587 74.0358 124.493 74.3286 125.244 74.8749C125.79 75.2873 125.979 75.6885 125.868 75.7776Z" fill="#263238"/>
<path d="M106.743 78.1186C106.749 78.5504 106.585 78.9673 106.287 79.2799C105.989 79.5925 105.581 79.7757 105.149 79.7902C104.938 79.8069 104.726 79.7813 104.524 79.715C104.323 79.6486 104.137 79.5428 103.978 79.4038C103.818 79.2647 103.687 79.0952 103.594 78.9052C103.5 78.7151 103.446 78.5083 103.433 78.2969C103.433 77.8649 103.599 77.4495 103.899 77.1378C104.198 76.8262 104.606 76.6425 105.038 76.6252C105.248 76.6101 105.459 76.6368 105.659 76.7039C105.859 76.7709 106.043 76.877 106.202 77.0159C106.361 77.1548 106.49 77.3238 106.583 77.513C106.676 77.7023 106.73 77.9081 106.743 78.1186Z" fill="#263238"/>
<path d="M108.347 76.1131C108.147 76.3249 106.888 75.3999 105.104 75.411C103.321 75.4222 102.017 76.3026 101.828 76.0797C101.638 75.8568 101.939 75.6005 102.508 75.1881C103.277 74.6462 104.197 74.3615 105.138 74.3746C106.067 74.3673 106.974 74.6605 107.723 75.2104C108.269 75.6228 108.448 76.0128 108.347 76.1131Z" fill="#263238"/>
<path d="M114.833 89.3303C115.774 89.0368 116.747 88.8609 117.731 88.8065C118.176 88.8065 118.611 88.6728 118.689 88.3608C118.725 87.8913 118.621 87.4217 118.388 87.0123C117.954 85.8978 117.508 84.7834 117.04 83.5463C115.167 78.6093 113.819 74.5527 114.019 74.4858C114.22 74.419 115.892 78.353 117.764 83.2788C118.21 84.5047 118.644 85.6638 119.046 86.7671C119.334 87.3185 119.42 87.953 119.291 88.5614C119.225 88.7226 119.122 88.866 118.99 88.9802C118.859 89.0944 118.702 89.1762 118.533 89.2189C118.283 89.2895 118.024 89.3269 117.764 89.3303C116.791 89.4577 115.806 89.4577 114.833 89.3303Z" fill="#263238"/>
<path d="M109.573 90.5654C109.863 90.5654 109.863 92.4822 111.524 93.9087C113.184 95.3352 115.235 95.0232 115.257 95.3464C115.279 95.6696 114.8 95.7141 113.92 95.7364C112.784 95.7432 111.683 95.3485 110.81 94.622C109.945 93.9352 109.388 92.9331 109.261 91.8359C109.261 91.0334 109.44 90.5542 109.573 90.5654Z" fill="#263238"/>
<path d="M108.816 69.1218C108.637 69.6122 106.854 69.3782 104.759 69.6345C102.664 69.8908 100.981 70.4592 100.703 70.0245C100.58 69.8128 100.87 69.3559 101.561 68.9101C102.469 68.3316 103.498 67.9694 104.569 67.8516C105.639 67.7337 106.722 67.8633 107.735 68.2303C108.504 68.5089 108.883 68.899 108.816 69.1218Z" fill="#263238"/>
<path d="M125.22 70.6175C124.908 71.0299 123.671 70.6175 122.2 70.6175C120.729 70.6175 119.47 70.8961 119.18 70.4726C119.057 70.2609 119.258 69.8597 119.804 69.4696C120.539 69.0128 121.393 68.7838 122.257 68.8116C123.122 68.8394 123.959 69.1226 124.663 69.6257C125.187 70.0046 125.354 70.4281 125.22 70.6175Z" fill="#263238"/>
<path d="M98.1172 60.7857H98.0503C96.218 62.2516 95.0207 64.3669 94.707 66.6923V66.9263C94.25 70.2697 94.3392 73.613 93.8488 76.9564C93.3585 80.2998 92.2217 83.6431 89.7699 85.872C88.7669 86.8082 86.9949 87.4545 86.1703 86.3624C85.8879 85.9082 85.7446 85.3813 85.7579 84.8467C85.1338 76.8561 82.9495 69.7682 82.9718 61.4432C82.9597 60.324 83.2154 59.2182 83.7175 58.2178C84.2196 57.2175 84.9536 56.3517 85.8582 55.6927C87.6079 54.4445 89.7365 53.1406 91.6868 54.0656C93.6371 54.9906 96.1446 58.6237 97.6491 60.1616" fill="#263238"/>
<path d="M89.4799 78.7519C89.2793 78.6628 81.5116 76.3893 81.7568 84.3242C82.0019 92.2591 89.9257 90.3645 89.9257 90.1416C89.9257 89.9187 89.4799 78.7519 89.4799 78.7519Z" fill="#EB996E"/>
<path d="M87.4078 87.2086C87.4078 87.2086 87.2741 87.3089 87.0512 87.4203C86.7261 87.5729 86.3544 87.5929 86.0148 87.4761C85.493 87.1684 85.0623 86.7277 84.7666 86.199C84.471 85.6703 84.321 85.0727 84.332 84.467C84.291 83.7864 84.4013 83.1051 84.6551 82.4722C84.719 82.2188 84.8437 81.9848 85.0185 81.7906C85.1933 81.5964 85.4129 81.4478 85.6582 81.3577C85.816 81.3119 85.9847 81.3212 86.1366 81.384C86.2885 81.4468 86.4145 81.5593 86.494 81.7032C86.6054 81.9261 86.5609 82.0821 86.6054 82.0933C86.65 82.1044 86.7615 81.9595 86.6946 81.6363C86.6433 81.4391 86.5251 81.2658 86.3603 81.146C86.1343 80.9947 85.8608 80.9313 85.5913 80.9677C85.2686 81.0466 84.971 81.2054 84.7256 81.4293C84.4803 81.6532 84.2951 81.9352 84.1871 82.2493C83.8716 82.9478 83.7338 83.7135 83.7859 84.4782C83.8862 86.083 84.7554 87.5429 85.9033 87.8215C86.119 87.8761 86.3442 87.8813 86.5622 87.837C86.7802 87.7926 86.9854 87.6997 87.1627 87.5652C87.4078 87.3981 87.4413 87.2197 87.4078 87.2086Z" fill="#D1734A"/>
<path d="M91.4301 55.2935C89.4798 52.1173 94.8292 47.5592 98.7409 46.3779C102.653 45.1966 107.813 47.0466 111.702 48.3393C114.165 49.1529 116.606 50.2896 119.202 50.1893C120.93 50.0052 122.623 49.5736 124.228 48.9077C125.832 48.2294 127.558 47.888 129.299 47.9047C130.169 47.9231 131.017 48.1789 131.751 48.6445C132.486 49.11 133.079 49.7675 133.467 50.5459C134.125 52.1507 133.189 54.3574 131.461 54.5914C132.012 54.2921 132.627 54.1303 133.254 54.1199C133.88 54.1095 134.5 54.2506 135.061 54.5314C135.621 54.8122 136.105 55.2242 136.472 55.7325C136.839 56.2407 137.078 56.8301 137.168 57.4504C137.258 58.0707 137.196 58.7036 136.989 59.2951C136.782 59.8867 136.434 60.4194 135.977 60.8478C135.519 61.2762 134.965 61.5878 134.361 61.7558C133.757 61.9239 133.122 61.9435 132.509 61.813C133.623 60.9549 135.362 62.3703 135.217 63.7745C135.065 64.4679 134.736 65.11 134.261 65.6375C133.786 66.1651 133.182 66.56 132.509 66.7835C129.165 68.2323 125.343 67.7642 121.922 66.6163C118.5 65.4684 115.324 63.6742 111.891 62.4371C108.459 61.2001 102.809 58.9712 99.4096 60.2082C96.9021 61.0998 95.1524 64.12 93.7371 63.4513C93.0691 63.0946 92.4942 62.5861 92.0587 61.9667C91.6232 61.3473 91.3392 60.6343 91.2295 59.885C91.0423 58.4003 91.095 56.8952 91.3856 55.4272" fill="#263238"/>
<path d="M132.409 54.3336C132.342 54.3336 132.008 54.9131 131.15 55.8381C129.936 57.1303 128.425 58.1059 126.748 58.6799C124.282 59.5664 121.568 59.4585 119.181 58.379C116.484 57.1643 114.177 54.7125 111.491 52.4836C109.028 50.1763 105.916 48.6823 102.575 48.2041C101.196 48.035 99.7965 48.183 98.4831 48.6369C97.1698 49.0907 95.9775 49.8384 94.997 50.823C94.3646 51.5108 93.8785 52.3198 93.5681 53.201C93.2578 54.0822 93.1297 55.0173 93.1916 55.9495C93.2353 56.4503 93.3517 56.9421 93.5371 57.4094C93.682 57.7215 93.7711 57.8775 93.7934 57.8664C93.6431 57.2325 93.5425 56.5879 93.4925 55.9384C93.4941 54.1731 94.1767 52.4764 95.3982 51.202C96.3461 50.306 97.4832 49.6345 98.7254 49.2371C99.9677 48.8398 101.283 48.7267 102.575 48.9062C105.752 49.4112 108.703 50.8595 111.045 53.0631C113.653 55.292 116.038 57.7772 118.924 59.0365C121.052 59.946 123.417 60.1455 125.667 59.6055C127.917 59.0655 129.934 57.8148 131.417 56.0387C131.734 55.66 132.011 55.2491 132.242 54.8128C132.365 54.5119 132.431 54.3447 132.409 54.3336Z" fill="#455A64"/>
<path d="M87.4523 78.4061C87.4523 78.4061 87.7978 78.1832 88.0987 77.5591C88.49 76.6546 88.6286 75.6609 88.4999 74.6838C88.3216 72.1317 86.0593 69.3902 85.7695 65.8574C85.568 64.2256 85.8755 62.5713 86.6499 61.121C87.3264 59.975 88.3599 59.0825 89.5921 58.58C90.4287 58.2272 91.3434 58.1003 92.2445 58.2122C92.8797 58.3237 93.2252 58.4686 93.2587 58.4017C92.9933 58.1574 92.6654 57.9915 92.3114 57.9225C91.3505 57.6722 90.3364 57.7188 89.4026 58.0562C88.0124 58.5462 86.8323 59.4981 86.0593 60.7532C85.1699 62.3258 84.8068 64.1417 85.0228 65.9354C85.2288 67.6776 85.746 69.3687 86.5496 70.9281C87.1863 72.1406 87.655 73.4341 87.9427 74.773C88.1618 76.0055 87.9904 77.2757 87.4523 78.4061Z" fill="#455A64"/>
<path d="M139.263 240.404L158.175 368.343L115.893 358.09L98.6631 244.572L139.263 240.404Z" fill="#263238"/>
<path d="M146.551 295.513C146.551 295.513 153.906 289.194 154.631 284.436C155.355 279.677 145.815 203.081 145.815 203.081L140.945 139.757C140.945 140.872 141.079 131.778 139.608 131.232C135.15 129.549 125.989 126.495 125.989 126.495L120.751 121.792C120.751 121.792 130.157 162.002 131.985 172.99L146.551 295.513Z" fill="#6318AF"/>
<path d="M86.1586 117.424L78.246 122.695L48.5681 134.364L61.7521 184.079L59.9801 212.966L58.2973 231.299C58.2973 231.299 49.4597 276.69 41.6585 304.273C41.6585 304.273 50.3624 320.767 57.5172 323.063L60.4928 324.835L71.1023 247.146L80.2074 234.887C81.0878 233.706 81.9014 232.491 82.6703 231.243C84.8992 227.599 90.0034 219.318 94.0712 212.932C99.4428 204.496 106.33 185.328 104.291 177.147C102.251 168.967 86.1586 117.424 86.1586 117.424Z" fill="#6318AF"/>
<path d="M86.1583 117.425L93.302 163.262C93.1081 169.123 92.1374 174.931 90.4155 180.536L77.6662 221.771C77.6662 221.771 67.6361 244.25 71.1021 247.125C74.568 250 101.527 247.125 101.527 247.125L138.014 241.831C138.828 241.712 139.565 241.285 140.073 240.638C140.581 239.991 140.821 239.173 140.744 238.354L135.328 182.386C133.5 178.519 132.754 170.607 131.985 167.798L120.751 121.805L118.455 121.504L113.462 124.925L110.832 125.137L88.755 114.449L86.1583 117.425Z" fill="#EBEBEB"/>
<path d="M79.5063 215.784C85.4017 197.407 93.0357 167.529 93.0357 167.529C95.4095 183.131 92.8128 199.123 87.0065 213.834C82.259 225.826 76.5195 234.897 72.5744 247.19L72.4518 247.691C72.4518 247.691 70.2229 247.814 70.3789 244.526C70.5349 241.239 73.7223 231.454 75.8509 226.037C77.9795 220.621 79.5063 215.784 79.5063 215.784Z" fill="#E0E0E0"/>
<path d="M114.733 128.811H109.774L108.291 135.598L112.627 140.847L116.995 140.413L118.422 135.543L117.252 132.823L114.733 128.811Z" fill="#6318AF"/>
<path d="M143.653 168.444C145.213 168.756 162.443 180.346 168.706 179.098C174.969 177.85 180.04 171.943 180.708 171.152C184.264 166.939 182.035 158.191 181.009 154.892C180.76 154.087 180.419 153.313 179.995 152.585L153.393 106.892L137.713 116.421L153.984 146.099L143.653 168.444Z" fill="#6318AF"/>
<path d="M15.3468 223.688C14.3159 220.992 13.8683 218.108 14.0335 215.227C14.1987 212.345 14.973 209.531 16.3052 206.971C19.9161 199.827 25.6443 188.293 26.848 184.504C28.6311 178.876 45.3033 135.691 48.5686 134.353L63.0565 183.267L46.2283 218.706L65.9541 255.873L49.5159 273.593C49.5159 273.593 18.4115 230.219 15.8483 224.858C15.67 224.472 15.5028 224.082 15.3468 223.688Z" fill="#6318AF"/>
<path d="M143.542 169.802C143.35 169.363 143.211 168.903 143.13 168.431C142.896 167.539 142.606 166.202 142.283 164.608C141.457 160.389 140.851 156.13 140.466 151.848C140.083 147.565 139.927 143.264 139.998 138.965C139.998 137.316 140.087 135.989 140.154 135.064C140.164 134.585 140.216 134.108 140.31 133.638C140.389 134.113 140.412 134.595 140.377 135.075C140.377 136.112 140.377 137.416 140.377 138.965C140.377 142.308 140.566 146.766 141.012 151.803C141.458 156.841 142.127 161.299 142.662 164.542C142.918 166.068 143.141 167.361 143.319 168.386C143.438 168.85 143.513 169.324 143.542 169.802Z" fill="#263238"/>
<path d="M157.182 172.443C157.182 172.443 157.048 172.443 156.803 172.354C156.459 172.229 156.127 172.072 155.811 171.886C154.651 171.168 153.681 170.182 152.981 169.011C152.002 167.278 151.316 165.395 150.952 163.439C150.382 161.076 149.939 158.683 149.626 156.273C149.158 151.124 148.768 146.499 148.512 143.133C148.4 141.54 148.311 140.202 148.233 139.144C148.18 138.655 148.18 138.161 148.233 137.672C148.358 138.147 148.44 138.632 148.478 139.121C148.59 140.236 148.746 141.506 148.924 143.089C149.292 146.432 149.749 151.102 150.206 156.206C150.529 158.747 151.008 161.154 151.487 163.316C151.81 165.259 152.434 167.139 153.337 168.888C153.987 170.031 154.876 171.02 155.945 171.786C156.748 172.22 157.238 172.399 157.182 172.443Z" fill="#263238"/>
<g opacity="0.3">
<path d="M148.201 137.717C146.843 142.851 145.904 148.088 145.392 153.375C144.922 156.53 145.089 159.747 145.882 162.836C146.841 165.868 149.081 168.665 152.157 169.523C150.753 159.181 149.516 148.82 148.446 138.441" fill="black"/>
</g>
<g opacity="0.3">
<path d="M56.9477 237.919C56.9477 237.919 62.1633 248.606 65.0498 254.201C71.0678 229.337 63.4338 203.17 65.919 177.716L61.5727 186.487L60.3468 206.781L59.4106 218.683C59.4106 218.683 58.5191 231.488 56.9477 237.919Z" fill="black"/>
</g>
<path d="M61.162 134.821C61.4989 135.252 61.7938 135.715 62.0425 136.203C62.3211 136.66 62.6331 137.228 62.9675 137.897C63.3018 138.565 63.7142 139.334 64.0819 140.203C64.9906 142.235 65.7759 144.319 66.4334 146.444C68.0192 151.668 68.8155 157.1 68.7961 162.559C68.7902 164.796 68.6375 167.03 68.3391 169.246C68.25 170.193 68.0717 171.04 67.9379 171.776C67.8042 172.511 67.6705 173.158 67.5479 173.67C67.4484 174.212 67.2953 174.742 67.0909 175.253C67.121 174.705 67.1993 174.16 67.325 173.626C67.4141 173.102 67.5256 172.511 67.6259 171.72C67.7262 170.929 67.8599 170.138 67.9379 169.202C68.167 167.006 68.2749 164.8 68.2611 162.593C68.2265 159.897 68.0218 157.206 67.6482 154.535C67.2366 151.868 66.6597 149.229 65.9208 146.634C65.2978 144.516 64.5536 142.436 63.6919 140.404C63.3575 139.524 62.9675 138.766 62.6666 138.075C62.3657 137.384 62.0759 136.816 61.8307 136.347C61.5571 135.862 61.3331 135.351 61.162 134.821Z" fill="#263238"/>
<path d="M46.0723 219.006C45.9943 219.062 45.2476 217.892 43.8434 216.053C41.9705 213.736 39.7485 211.724 37.257 210.091C35.9227 209.189 34.3101 208.794 32.71 208.976C31.411 209.216 30.1815 209.741 29.1104 210.514C27.2269 211.807 26.2016 212.821 26.1236 212.743C26.3048 212.453 26.5304 212.194 26.7923 211.974C27.4435 211.324 28.1399 210.721 28.8763 210.169C29.9712 209.341 31.2404 208.773 32.5875 208.508C34.3106 208.262 36.0639 208.659 37.5133 209.623C40.0676 211.283 42.3055 213.385 44.122 215.83C44.6726 216.564 45.1787 217.331 45.6377 218.126C45.8273 218.395 45.974 218.692 46.0723 219.006Z" fill="#263238"/>
<path d="M42.3939 207.294C44.6059 210.67 45.8756 214.575 46.0716 218.606C45.8933 218.606 45.4587 215.998 44.4334 212.889C43.4081 209.779 42.2714 207.394 42.3939 207.294Z" fill="#263238"/>
<path d="M56.6035 237.226C56.9235 237.676 57.2032 238.154 57.4393 238.653L59.5568 242.654C61.3288 246.053 63.7471 250.789 66.433 256.105L66.5333 256.295L66.3884 256.439L65.2739 257.554C60.8941 262.112 56.9155 266.224 54.0068 269.166L50.5409 272.644C50.1332 273.088 49.6896 273.498 49.2147 273.869C49.5471 273.379 49.9199 272.916 50.3291 272.488L53.6725 268.888C56.5032 265.857 60.4483 261.711 64.817 257.153L65.9314 256.038V256.373C63.2568 251.046 60.8941 246.343 59.2447 242.832L57.2944 238.753C57.0149 238.268 56.7834 237.757 56.6035 237.226Z" fill="#263238"/>
<path d="M78.3134 214.806C78.2844 214.483 78.2844 214.159 78.3134 213.836C78.3134 213.156 78.3134 212.243 78.3134 211.084C78.3691 208.643 78.4472 205.188 78.5475 200.953C78.6478 196.718 78.7592 191.592 78.9932 185.942C79.1352 179.782 79.9727 173.658 81.4896 167.687C82.3322 164.627 83.5134 161.67 85.0113 158.872L85.223 159.295C83.8359 159.058 82.5748 158.344 81.6568 157.278C80.7816 156.279 80.1452 155.093 79.7956 153.812C79.2853 151.441 79.0904 149.012 79.2161 146.59C79.2161 142.054 79.2161 137.998 79.2161 134.61C79.2161 131.222 79.2161 128.581 79.2161 126.664C79.2161 125.772 79.2161 125.059 79.2161 124.524C79.1899 124.28 79.1899 124.033 79.2161 123.789C79.2583 124.031 79.277 124.278 79.2718 124.524C79.2718 125.059 79.2718 125.772 79.3276 126.664C79.3276 128.581 79.3944 131.267 79.4502 134.599C79.5059 137.931 79.5282 142.043 79.5728 146.59C79.4613 148.965 79.6636 151.345 80.1745 153.667C80.5076 154.862 81.1057 155.967 81.9242 156.899C82.755 157.867 83.8984 158.514 85.1562 158.727L85.5574 158.793L85.3679 159.15C83.8914 161.909 82.7288 164.825 81.902 167.843C80.4019 173.773 79.5573 179.85 79.3833 185.964C79.127 191.603 78.9821 196.696 78.8038 200.976C78.6255 205.255 78.4917 208.643 78.3914 211.095L78.2577 213.847C78.2922 214.166 78.3108 214.486 78.3134 214.806Z" fill="#263238"/>
<path d="M126.067 127.152C126.179 127.346 126.268 127.551 126.335 127.765C126.491 128.233 126.714 128.879 126.97 129.559L129.277 136.246C130.235 139.11 131.383 142.509 132.62 146.276C133.233 148.204 133.991 150.165 134.559 152.338C134.865 153.468 134.914 154.653 134.704 155.804C134.595 156.419 134.364 157.005 134.023 157.528C133.682 158.051 133.239 158.499 132.721 158.847L132.81 158.434C133.746 159.827 134.738 161.31 135.663 162.892C137.053 165.132 138.105 167.566 138.783 170.114C139.304 172.514 139.473 174.976 139.285 177.425C139.017 182.05 138.716 186.207 138.471 189.684C138.226 193.161 138.014 195.947 137.858 197.964C137.78 198.889 137.713 199.636 137.669 200.193C137.657 200.456 137.62 200.717 137.557 200.973C137.531 200.71 137.531 200.445 137.557 200.182C137.557 199.613 137.613 198.856 137.646 197.953C137.747 195.925 137.892 193.105 138.07 189.661C138.248 186.218 138.505 181.983 138.772 177.402C138.926 175.008 138.75 172.605 138.248 170.259C137.571 167.77 136.535 165.394 135.172 163.204C134.259 161.666 133.278 160.195 132.342 158.746L132.174 158.501L132.431 158.345C132.883 158.041 133.27 157.648 133.567 157.19C133.864 156.732 134.065 156.219 134.158 155.682C134.357 154.609 134.315 153.505 134.036 152.45C133.501 150.355 132.743 148.337 132.141 146.432C130.915 142.609 129.812 139.199 128.876 136.324C127.94 133.448 127.26 131.231 126.747 129.637C126.513 128.89 126.335 128.277 126.19 127.809C126.133 127.593 126.092 127.374 126.067 127.152Z" fill="#263238"/>
<path d="M86.9714 124.837C87.4047 125.06 87.8152 125.325 88.1973 125.628L91.4738 127.857C94.2599 129.763 98.1605 132.315 102.618 134.856C104.29 135.814 105.962 136.706 107.433 137.508L107.032 137.686C107.968 133.986 108.792 130.81 109.394 128.57C109.684 127.523 109.929 126.653 110.13 125.94C110.201 125.62 110.309 125.31 110.453 125.015C110.445 125.343 110.396 125.669 110.308 125.985C110.152 126.709 109.963 127.589 109.74 128.648C109.216 130.877 108.469 134.109 107.511 137.82L107.433 138.154L107.121 137.998C105.594 137.207 103.945 136.316 102.273 135.357C98.4508 133.175 94.7525 130.783 91.1952 128.191C89.8355 127.199 88.7545 126.352 88.019 125.762C87.6368 125.493 87.2855 125.183 86.9714 124.837Z" fill="#263238"/>
<path d="M123.751 133.04C122.199 134.282 120.552 135.4 118.825 136.383L118.58 136.539L118.446 136.272L116.941 133.341C115.827 131.112 114.768 128.995 114.066 127.479C113.629 126.683 113.278 125.842 113.018 124.971C113.57 125.694 114.041 126.475 114.423 127.301C115.225 128.761 116.306 130.8 117.454 133.074L118.958 136.071L118.58 135.96C120.23 134.863 121.959 133.887 123.751 133.04Z" fill="#263238"/>
<path d="M116.484 131.945C116.186 132.237 115.858 132.495 115.503 132.714C114.89 133.171 114.021 133.828 113.051 134.441C112.082 135.054 111.201 135.689 110.555 136.113C110.202 136.356 109.829 136.569 109.44 136.748C109.738 136.454 110.067 136.192 110.421 135.968C111.045 135.522 111.914 134.909 112.873 134.252L115.369 132.58C115.722 132.337 116.095 132.124 116.484 131.945Z" fill="#263238"/>
<path d="M113.141 134.251C112.346 133.626 111.6 132.941 110.912 132.2C110.192 131.509 109.525 130.764 108.917 129.972C109.691 130.597 110.413 131.283 111.079 132.022C111.822 132.711 112.512 133.456 113.141 134.251Z" fill="#263238"/>
<path d="M92.1438 233.115C92.4732 235.901 93.2523 238.615 94.4507 241.151C95.8125 243.601 97.5669 245.811 99.6441 247.693C98.8802 247.335 98.1889 246.841 97.6046 246.233C94.5779 243.46 92.6413 239.697 92.1438 235.623C91.995 234.794 91.995 233.945 92.1438 233.115Z" fill="#263238"/>
<path d="M120.406 212.13C120.598 212.506 120.737 212.908 120.819 213.322C121.053 214.102 121.354 215.239 121.688 216.666C122.379 219.485 123.192 223.419 123.839 227.81C124.485 232.201 124.853 236.191 125.02 239.1C125.098 240.548 125.143 241.719 125.143 242.532C125.198 242.95 125.198 243.373 125.143 243.791C125.039 243.383 124.979 242.964 124.964 242.543C124.875 241.607 124.775 240.47 124.652 239.122C124.385 236.247 123.961 232.268 123.315 227.899C122.669 223.531 121.911 219.597 121.331 216.755C121.064 215.429 120.83 214.303 120.64 213.411C120.515 212.994 120.437 212.564 120.406 212.13Z" fill="#263238"/>
<path d="M112.984 141.984C111.535 153.563 110.466 178.761 110.064 190.451C109.73 200.214 109.763 209.988 109.797 219.761C109.797 222.915 109.797 226.169 111.145 229.033C113.475 234.193 119.169 236.835 124.396 238.93L112.984 141.984Z" fill="#E0E0E0"/>
<path d="M125.978 237.259L131.962 222.593L116.995 140.414L112.627 140.848C112.627 140.848 113.24 226.26 113.039 227.029L125.978 237.259Z" fill="#6318AF"/>
<path d="M116.84 140.414C116.165 140.627 115.463 140.744 114.756 140.759C114.06 140.851 113.356 140.851 112.661 140.759C113.349 140.64 114.046 140.573 114.745 140.558C115.439 140.466 116.139 140.418 116.84 140.414Z" fill="#263238"/>
<path d="M155.017 67.5789C155.029 62.9425 156.61 58.4467 159.504 54.8241C162.397 51.2015 166.432 48.6656 170.951 47.6295C175.471 46.5935 180.207 47.1184 184.39 49.1187C188.573 51.119 191.955 54.4769 193.985 58.6451C196.015 62.8134 196.574 67.5463 195.57 72.0728C194.567 76.5992 192.06 80.6523 188.458 83.5718C184.856 86.4912 180.372 88.1048 175.735 88.1497C171.099 88.1945 166.585 86.668 162.927 83.8189L156.037 84.7089L158.037 78.3289C156.049 75.0966 155.003 71.3735 155.017 67.5789Z" fill="white"/>
<path d="M155.017 67.5788C154.97 68.5813 155.02 69.586 155.167 70.5788C155.533 73.3585 156.473 76.0317 157.927 78.4288V78.3488L155.927 84.7188C155.917 84.7533 155.921 84.7901 155.938 84.8217C155.955 84.8533 155.983 84.8773 156.017 84.8888H156.077L162.967 84.0288C163.006 84.0215 163.04 84.0001 163.064 83.9688C163.088 83.9374 163.1 83.8982 163.097 83.8588V83.7788L162.887 83.9988C165.33 85.9074 168.169 87.2435 171.197 87.9088C172.837 88.2753 174.518 88.4232 176.197 88.3488L177.497 88.2888C177.937 88.2888 178.367 88.1688 178.807 88.1088C179.692 87.974 180.567 87.7802 181.427 87.5288C183.187 86.9944 184.869 86.2277 186.427 85.2488L187.037 84.8788L187.607 84.4588C187.987 84.1688 188.377 83.9088 188.747 83.5888C189.483 82.9686 190.178 82.3005 190.827 81.5888C191.483 80.8598 192.094 80.0917 192.657 79.2888C193.205 78.4565 193.696 77.5878 194.127 76.6888C194.561 75.7831 194.938 74.8513 195.257 73.8988C195.546 72.9146 195.77 71.9125 195.927 70.8988C196.296 68.5978 196.269 66.2507 195.847 63.9588C195.424 61.7389 194.655 59.5994 193.567 57.6188C192.511 55.7183 191.161 53.997 189.567 52.5188C188.791 51.796 187.965 51.1277 187.097 50.5188C186.234 49.958 185.335 49.4537 184.407 49.0088L183.717 48.6788C183.487 48.5688 183.247 48.4988 183.007 48.4088C182.537 48.2388 182.077 48.0488 181.597 47.8988C180.659 47.6223 179.704 47.4118 178.737 47.2688C177.798 47.1166 176.848 47.033 175.897 47.0188C175.434 46.9937 174.97 46.9937 174.507 47.0188C174.052 47.0265 173.598 47.0599 173.147 47.1188C170.097 47.4772 167.166 48.5148 164.57 50.1555C161.974 51.7961 159.779 53.9979 158.147 56.5988C157.548 57.5588 157.019 58.5615 156.567 59.5988C156.21 60.4812 155.913 61.3866 155.677 62.3088C155.567 62.7288 155.467 63.1188 155.387 63.4888C155.307 63.8588 155.277 64.2088 155.227 64.4888C155.177 64.7688 155.137 65.1188 155.097 65.3888C155.057 65.6588 155.097 65.9188 155.097 66.1488C155.097 66.5788 155.097 66.9188 155.097 67.1488V67.4988C155.097 67.4988 155.097 67.3788 155.097 67.1488C155.097 66.9188 155.097 66.5688 155.177 66.1488C155.177 65.9288 155.177 65.6788 155.227 65.3988C155.277 65.1188 155.317 64.8288 155.377 64.5088C155.437 64.1888 155.487 63.8388 155.547 63.5088C155.607 63.1788 155.747 62.7588 155.847 62.3488C156.097 61.4371 156.404 60.542 156.767 59.6688C157.226 58.6327 157.757 57.6302 158.357 56.6688C159.839 54.3675 161.763 52.3827 164.017 50.8288C166.76 48.9561 169.917 47.7789 173.217 47.3988C173.665 47.3403 174.115 47.3069 174.567 47.2988C175.017 47.2988 175.477 47.2288 175.937 47.2988C176.868 47.3219 177.797 47.4087 178.717 47.5588C179.67 47.7068 180.612 47.9173 181.537 48.1888C181.997 48.3388 182.457 48.5288 182.917 48.6888C183.147 48.7788 183.387 48.8588 183.617 48.9588L184.287 49.2888C185.202 49.7211 186.084 50.219 186.927 50.7788C187.78 51.3876 188.588 52.0559 189.347 52.7788C190.924 54.2218 192.258 55.9102 193.297 57.7788C194.367 59.7202 195.12 61.82 195.527 63.9988C195.944 66.2441 195.971 68.5444 195.607 70.7988C195.453 71.7893 195.233 72.7682 194.947 73.7288C194.328 75.5947 193.471 77.3728 192.397 79.0188C191.85 79.8106 191.252 80.5656 190.607 81.2788C189.986 81.9893 189.317 82.6575 188.607 83.2788C188.257 83.5888 187.857 83.8488 187.487 84.1288L186.927 84.5488L186.337 84.9088C184.795 85.8707 183.134 86.6271 181.397 87.1588C180.549 87.4011 179.688 87.5915 178.817 87.7288C178.387 87.7888 177.957 87.8688 177.537 87.9088L176.247 87.9788C174.589 88.0481 172.929 87.9069 171.307 87.5588C168.321 86.9092 165.517 85.6045 163.097 83.7388C163.069 83.7113 163.031 83.6959 162.992 83.6959C162.953 83.6959 162.915 83.7113 162.887 83.7388C162.868 83.7669 162.858 83.8 162.858 83.8338C162.858 83.8677 162.868 83.9007 162.887 83.9288L162.997 83.6788L156.107 84.5888L156.257 84.7588C156.977 82.3988 157.627 80.2488 158.257 78.3688C158.267 78.3396 158.267 78.308 158.257 78.2788C156.798 75.9132 155.832 73.2771 155.417 70.5288C155.277 69.5288 155.237 68.8388 155.197 68.3388V67.7788C155.027 67.6388 155.027 67.5788 155.017 67.5788Z" fill="#263238"/>
<path d="M169.707 67.6289C169.707 68.011 169.593 68.3846 169.381 68.7022C169.168 69.0198 168.866 69.2671 168.513 69.4129C168.16 69.5587 167.771 69.5963 167.397 69.521C167.022 69.4457 166.678 69.2609 166.409 68.99C166.139 68.7191 165.956 68.3743 165.883 67.9992C165.809 67.6242 165.849 67.2358 165.997 66.8833C166.144 66.5309 166.393 66.2301 166.712 66.0193C167.031 65.8084 167.405 65.6969 167.787 65.6989C168.297 65.7015 168.785 65.906 169.145 66.2677C169.505 66.6293 169.707 67.1187 169.707 67.6289Z" fill="#263238"/>
<path d="M177.417 67.6488C177.417 68.0309 177.303 68.4045 177.091 68.7221C176.878 69.0397 176.576 69.287 176.223 69.4328C175.87 69.5786 175.481 69.6162 175.107 69.5409C174.732 69.4656 174.388 69.2808 174.119 69.0099C173.849 68.739 173.666 68.3942 173.593 68.0191C173.519 67.6441 173.559 67.2557 173.707 66.9032C173.854 66.5508 174.103 66.25 174.422 66.0392C174.741 65.8283 175.115 65.7168 175.497 65.7188C176.006 65.724 176.493 65.9294 176.852 66.2905C177.211 66.6516 177.414 67.1394 177.417 67.6488Z" fill="#263238"/>
<path d="M185.097 66.7088C185.289 67.0397 185.379 67.4202 185.354 67.802C185.329 68.1838 185.192 68.5497 184.959 68.8532C184.726 69.1568 184.408 69.3842 184.046 69.5067C183.683 69.6291 183.292 69.6411 182.923 69.541C182.554 69.4409 182.223 69.2333 181.972 68.9446C181.721 68.6559 181.561 68.299 181.513 67.9194C181.465 67.5398 181.531 67.1546 181.703 66.8126C181.875 66.4706 182.144 66.1874 182.477 65.9988C182.919 65.7484 183.442 65.6824 183.933 65.8154C184.423 65.9483 184.842 66.2693 185.097 66.7088Z" fill="#263238"/>
</g>
<defs>
<clipPath id="clip0_1_3579">
<rect width="242" height="242" rx="121" fill="white"/>
</clipPath>
</defs>
</svg>
