<svg width="315" height="186" viewBox="0 0 315 186" fill="none" xmlns="http://www.w3.org/2000/svg">
<path d="M24.5813 91.4814L15.4448 95.7418C15.1236 95.8916 14.8749 96.1627 14.7535 96.4955C14.6322 96.8283 14.648 97.1956 14.7977 97.5164L16.6653 101.522C16.8149 101.842 17.086 102.091 17.419 102.212C17.752 102.333 18.1195 102.316 18.4408 102.167L19.9548 101.461L22.7532 107.462L28.8616 104.613L26.0632 98.6122L27.5773 97.9062C27.8985 97.7564 28.1472 97.4852 28.2686 97.1524C28.3899 96.8196 28.3741 96.4524 28.2244 96.1315L26.3568 92.1263C26.2072 91.8055 25.936 91.5573 25.6031 91.4363C25.2701 91.3154 24.9026 91.3316 24.5813 91.4814Z" fill="#6318AF"/>
<path d="M50.8255 123.87C41.4168 118.302 34.0162 109.899 29.6838 99.8664C29.5824 99.6356 29.4041 99.447 29.1792 99.3328C28.9543 99.2185 28.6967 99.1856 28.4501 99.2396L27.6431 97.509L17.9938 102.009L18.7896 103.715L18.6566 103.777C18.5206 103.841 18.3992 103.932 18.2999 104.044C18.2006 104.157 18.1255 104.289 18.0795 104.432C18.0334 104.574 18.0173 104.725 18.0322 104.874C18.047 105.024 18.0925 105.168 18.1658 105.299C23.8611 115.528 25.7199 126.216 23.7421 137.363C23.628 138.004 23.7249 138.664 24.0184 139.245L40.2734 171.349C40.6378 172.065 41.2647 172.611 42.0233 172.875C42.7818 173.139 43.6135 173.1 44.3445 172.767L66.1699 162.589C66.9038 162.24 67.4724 161.618 67.7546 160.856C68.0367 160.094 68.0101 159.253 67.6804 158.511L53.3292 126.673C52.7995 125.506 51.9261 124.528 50.8255 123.87Z" fill="#3F3D56"/>
<path opacity="0.2" d="M23.2852 93.6741C23.608 94.3663 23.6422 95.1586 23.3804 95.8766C23.1185 96.5946 22.582 97.1796 21.8889 97.5028C21.1958 97.826 20.4029 97.8609 19.6845 97.6C18.9662 97.3391 18.3813 96.8036 18.0585 96.1113" fill="black"/>
<path d="M52.4193 136.309L49.7764 137.541C48.7616 136.024 47.2364 134.92 45.4767 134.429C43.7169 133.938 41.8389 134.093 40.1823 134.865C38.5257 135.638 37.1999 136.977 36.4447 138.64C35.6896 140.304 35.5549 142.182 36.0651 143.935L33.422 145.167C33.1408 145.298 32.8913 145.489 32.6904 145.725C32.4896 145.962 32.3423 146.239 32.2586 146.537C32.1749 146.836 32.1568 147.149 32.2055 147.455C32.2542 147.761 32.3686 148.053 32.5408 148.31L44.1018 165.608L60.5861 157.921L55.4121 137.722C55.3337 137.416 55.1888 137.131 54.9877 136.887C54.7866 136.644 54.5342 136.448 54.2484 136.313C53.9627 136.178 53.6507 136.108 53.3345 136.107C53.0184 136.106 52.7059 136.175 52.4193 136.309Z" fill="url(#paint0_linear_1_3542)"/>
<path d="M293.699 108.989L293 136.912L292.133 171.537H262.647L261.632 130.969L261.081 108.989H293.699Z" fill="#E6E6E6"/>
<path d="M279.347 94.1338H275.172V149.384H279.347V94.1338Z" fill="#4A4458"/>
<path d="M291.612 130.028L290.822 169.715H263.945L263.02 123.218C265.441 122.538 267.977 122.364 270.469 122.707C272.96 123.049 275.355 123.9 277.503 125.207C281.993 127.86 287.038 129.287 291.612 130.028Z" fill="#6318AF"/>
<path d="M270.599 134.496H266.768V138.322H270.599V134.496Z" fill="#E6E6E6"/>
<path d="M273.208 126.678H269.377V130.504H273.208V126.678Z" fill="#E6E6E6"/>
<path d="M281.435 132.091L278.358 129.812L276.076 132.885L279.153 135.164L281.435 132.091Z" fill="#E6E6E6"/>
<path d="M288.356 138.87L285.279 136.591L282.997 139.664L286.074 141.943L288.356 138.87Z" fill="#E6E6E6"/>
<path d="M276.614 142.779L273.537 140.5L271.255 143.573L274.332 145.853L276.614 142.779Z" fill="#E6E6E6"/>
<path d="M285.61 125.148C286.042 125.148 286.393 124.798 286.393 124.366C286.393 123.934 286.042 123.584 285.61 123.584C285.177 123.584 284.827 123.934 284.827 124.366C284.827 124.798 285.177 125.148 285.61 125.148Z" fill="#3F3D56"/>
<path d="M269.692 119.935C270.125 119.935 270.475 119.585 270.475 119.153C270.475 118.721 270.125 118.371 269.692 118.371C269.26 118.371 268.909 118.721 268.909 119.153C268.909 119.585 269.26 119.935 269.692 119.935Z" fill="#3F3D56"/>
<path d="M283 114.462C283.433 114.462 283.783 114.112 283.783 113.68C283.783 113.248 283.433 112.898 283 112.898C282.568 112.898 282.218 113.248 282.218 113.68C282.218 114.112 282.568 114.462 283 114.462Z" fill="#3F3D56"/>
<path d="M157.68 171.298C205.043 171.298 243.438 132.952 243.438 85.6491C243.438 38.3464 205.043 0 157.68 0C110.318 0 71.9229 38.3464 71.9229 85.6491C71.9229 132.952 110.318 171.298 157.68 171.298Z" fill="#6318AF"/>
<path opacity="0.2" d="M157.68 148.165C143.199 148.165 129.165 143.15 117.971 133.975C106.777 124.799 99.1143 112.031 96.2892 97.8457C93.4641 83.6604 95.6511 68.9356 102.478 56.1803C109.304 43.4249 120.348 33.4282 133.727 27.8934C147.106 22.3586 161.993 21.6282 175.851 25.8267C189.709 30.0252 201.68 38.8928 209.726 50.9185C217.771 62.9442 221.393 77.384 219.973 91.7775C218.554 106.171 212.181 119.628 201.941 129.855C196.142 135.678 189.245 140.295 181.647 143.438C174.05 146.581 165.904 148.188 157.68 148.165ZM157.68 26.9896C125.294 26.9896 98.9462 53.3043 98.9462 85.6495C98.9462 117.995 125.294 144.31 157.68 144.31C190.066 144.31 216.414 117.995 216.414 85.6495C216.414 53.3043 190.066 26.9896 157.68 26.9896Z" fill="black"/>
<path d="M157.68 146.237C191.184 146.237 218.345 119.111 218.345 85.6493C218.345 52.1876 191.184 25.0615 157.68 25.0615C124.176 25.0615 97.0159 52.1876 97.0159 85.6493C97.0159 119.111 124.176 146.237 157.68 146.237Z" fill="#3F3D56"/>
<path d="M112.565 61.4222C112.105 60.5223 111.827 59.5406 111.747 58.5333C111.668 57.526 111.787 56.5128 112.099 55.5517C112.412 54.5906 112.911 53.7005 113.568 52.9321C114.225 52.1637 115.027 51.5322 115.929 51.0736C116.83 50.6151 117.813 50.3385 118.822 50.2597C119.831 50.1809 120.845 50.3015 121.807 50.6145C122.769 50.9274 123.66 51.4267 124.429 52.0837C125.197 52.7407 125.829 53.5426 126.287 54.4435L143.426 88.0572C143.886 88.9572 144.164 89.9388 144.244 90.9461C144.324 91.9534 144.204 92.9666 143.892 93.9277C143.58 94.8888 143.081 95.779 142.424 96.5474C141.767 97.3158 140.964 97.9473 140.063 98.4058C139.161 98.8643 138.178 99.1409 137.169 99.2197C136.161 99.2985 135.146 99.178 134.184 98.865C133.222 98.552 132.332 98.0528 131.563 97.3957C130.794 96.7387 130.163 95.9368 129.705 95.0359L112.565 61.4222Z" fill="#FF6584"/>
<path opacity="0.2" d="M114.477 65.1717L113.686 63.6203C117.634 60.5567 122.27 58.3036 127.407 56.6416L128.198 58.193C122.638 59.3495 117.907 61.4897 114.477 65.1717Z" fill="black"/>
<path opacity="0.2" d="M118.169 72.412L117.378 70.8605C121.326 67.7969 125.961 65.5438 131.099 63.8818L131.89 65.4332C126.33 66.5897 121.599 68.7299 118.169 72.412Z" fill="black"/>
<path opacity="0.2" d="M121.86 79.6512L121.069 78.0998C125.017 75.0362 129.653 72.7831 134.79 71.1211L135.582 72.6725C130.021 73.829 125.29 75.9692 121.86 79.6512Z" fill="black"/>
<path opacity="0.2" d="M125.552 86.8914L124.761 85.34C128.709 82.2764 133.344 80.0233 138.482 78.3613L139.273 79.9127C133.713 81.0692 128.982 83.2094 125.552 86.8914Z" fill="black"/>
<path opacity="0.2" d="M129.243 94.1317L128.452 92.5803C132.4 89.5167 137.036 87.2636 142.174 85.6016L142.965 87.153C137.404 88.3094 132.673 90.4496 129.243 94.1317Z" fill="black"/>
<path d="M99.7072 74.0065C99.2472 73.1065 98.9694 72.1249 98.8895 71.1177C98.8096 70.1104 98.9293 69.0973 99.2417 68.1363C99.5541 67.1753 100.053 66.2852 100.71 65.5169C101.367 64.7486 102.169 64.1171 103.071 63.6586C103.972 63.2001 104.955 62.9235 105.964 62.8447C106.973 62.7659 107.987 62.8864 108.949 63.1993C109.911 63.5122 110.801 64.0114 111.57 64.6683C112.339 65.3252 112.97 66.127 113.429 67.0278L130.568 100.641C131.492 102.458 131.656 104.568 131.024 106.505C130.392 108.443 129.015 110.051 127.197 110.976C125.379 111.9 123.267 112.066 121.326 111.437C119.386 110.808 117.774 109.435 116.846 107.62L99.7072 74.0065Z" fill="#FF6584"/>
<path opacity="0.2" d="M101.619 77.7557L100.828 76.2043C104.775 73.1407 109.411 70.8876 114.549 69.2256L115.34 70.777C109.78 71.9335 105.049 74.0736 101.619 77.7557Z" fill="black"/>
<path opacity="0.2" d="M105.31 84.995L104.519 83.4436C108.467 80.38 113.103 78.1268 118.241 76.4648L119.032 78.0162C113.471 79.1727 108.74 81.3129 105.31 84.995Z" fill="black"/>
<path opacity="0.2" d="M109.002 92.2352L108.211 90.6838C112.159 87.6202 116.794 85.3671 121.932 83.7051L122.723 85.2565C117.163 86.4129 112.432 88.5532 109.002 92.2352Z" fill="black"/>
<path opacity="0.2" d="M112.693 99.4754L111.902 97.924C115.85 94.8604 120.486 92.6073 125.624 90.9453L126.415 92.4967C120.854 93.6532 116.123 95.7934 112.693 99.4754Z" fill="black"/>
<path opacity="0.2" d="M116.385 106.715L115.594 105.163C119.542 102.1 124.177 99.8466 129.315 98.1846L130.106 99.736C124.546 100.892 119.815 103.033 116.385 106.715Z" fill="black"/>
<path d="M198.215 87.5766L198.269 87.5767C200.115 87.5922 201.923 87.0516 203.457 86.0255C204.991 84.9994 206.179 83.5354 206.867 81.8245C208.283 78.251 208.996 74.4387 208.969 70.5959C208.872 54.3305 195.623 40.9867 179.338 40.7617C172.403 40.6648 165.647 42.966 160.217 47.2753C154.786 51.5846 151.015 57.6368 149.542 64.406C148.069 71.1751 148.985 78.2448 152.135 84.4165C155.285 90.5882 160.474 95.4822 166.824 98.2689C168.503 99.0109 170.366 99.2291 172.17 98.8949C173.975 98.5608 175.636 97.6898 176.936 96.3962C179.725 93.5964 183.041 91.3757 186.693 89.862C190.345 88.3483 194.261 87.5716 198.215 87.5766Z" fill="#E6E6E6"/>
<path d="M182.773 78.4889C188.256 78.4889 192.7 74.0501 192.7 68.5745C192.7 63.099 188.256 58.6602 182.773 58.6602C177.291 58.6602 172.846 63.099 172.846 68.5745C172.846 74.0501 177.291 78.4889 182.773 78.4889Z" fill="#F9A825"/>
<path d="M161.198 67.4599C161.844 67.4599 162.368 66.937 162.368 66.292C162.368 65.6469 161.844 65.124 161.198 65.124C160.553 65.124 160.029 65.6469 160.029 66.292C160.029 66.937 160.553 67.4599 161.198 67.4599Z" fill="#3F3D56"/>
<path d="M122.594 68.5615C123.24 68.5615 123.763 68.0386 123.763 67.3935C123.763 66.7485 123.24 66.2256 122.594 66.2256C121.948 66.2256 121.425 66.7485 121.425 67.3935C121.425 68.0386 121.948 68.5615 122.594 68.5615Z" fill="#3F3D56"/>
<path d="M167.431 55.3554C168.077 55.3554 168.601 54.8325 168.601 54.1875C168.601 53.5424 168.077 53.0195 167.431 53.0195C166.785 53.0195 166.262 53.5424 166.262 54.1875C166.262 54.8325 166.785 55.3554 167.431 55.3554Z" fill="#3F3D56"/>
<path d="M167.398 89.0205C168.044 89.0205 168.567 88.4976 168.567 87.8525C168.567 87.2075 168.044 86.6846 167.398 86.6846C166.752 86.6846 166.229 87.2075 166.229 87.8525C166.229 88.4976 166.752 89.0205 167.398 89.0205Z" fill="#3F3D56"/>
<path d="M190.561 52.9433C191.206 52.9433 191.73 52.4204 191.73 51.7754C191.73 51.1303 191.206 50.6074 190.561 50.6074C189.915 50.6074 189.391 51.1303 189.391 51.7754C189.391 52.4204 189.915 52.9433 190.561 52.9433Z" fill="#3F3D56"/>
<path d="M115.006 84.8896C115.652 84.8896 116.175 84.3667 116.175 83.7217C116.175 83.0766 115.652 82.5537 115.006 82.5537C114.36 82.5537 113.836 83.0766 113.836 83.7217C113.836 84.3667 114.36 84.8896 115.006 84.8896Z" fill="#3F3D56"/>
<path d="M123.554 101.688C124.2 101.688 124.723 101.166 124.723 100.52C124.723 99.8755 124.2 99.3525 123.554 99.3525C122.908 99.3525 122.385 99.8755 122.385 100.52C122.385 101.166 122.908 101.688 123.554 101.688Z" fill="#3F3D56"/>
<path d="M177.258 107.13C179.695 107.13 181.67 105.157 181.67 102.724C181.67 100.29 179.695 98.3174 177.258 98.3174C174.822 98.3174 172.846 100.29 172.846 102.724C172.846 105.157 174.822 107.13 177.258 107.13Z" fill="#FF6584"/>
<path opacity="0.2" d="M180.567 102.999C180.567 103.876 180.219 104.716 179.598 105.336C178.977 105.956 178.136 106.304 177.258 106.304C176.381 106.304 175.539 105.956 174.918 105.336C174.298 104.716 173.949 103.876 173.949 102.999" fill="black"/>
<path opacity="0.2" d="M173.949 102.448C173.949 101.572 174.298 100.731 174.918 100.112C175.539 99.4917 176.381 99.1436 177.258 99.1436C178.136 99.1436 178.977 99.4917 179.598 100.112C180.219 100.731 180.567 101.572 180.567 102.448" fill="black"/>
<path d="M175.604 101.622C175.756 101.622 175.88 101.437 175.88 101.209C175.88 100.981 175.756 100.796 175.604 100.796C175.452 100.796 175.328 100.981 175.328 101.209C175.328 101.437 175.452 101.622 175.604 101.622Z" fill="#FF6584"/>
<path d="M177.258 101.071C177.41 101.071 177.534 100.886 177.534 100.658C177.534 100.43 177.41 100.245 177.258 100.245C177.106 100.245 176.982 100.43 176.982 100.658C176.982 100.886 177.106 101.071 177.258 101.071Z" fill="#FF6584"/>
<path d="M177.258 104.651C177.41 104.651 177.534 104.466 177.534 104.238C177.534 104.01 177.41 103.825 177.258 103.825C177.106 103.825 176.982 104.01 176.982 104.238C176.982 104.466 177.106 104.651 177.258 104.651Z" fill="#FF6584"/>
<path d="M178.913 102.448C179.065 102.448 179.188 102.263 179.188 102.035C179.188 101.807 179.065 101.622 178.913 101.622C178.76 101.622 178.637 101.807 178.637 102.035C178.637 102.263 178.76 102.448 178.913 102.448Z" fill="#FF6584"/>
<path d="M178.637 105.478C178.789 105.478 178.913 105.293 178.913 105.064C178.913 104.836 178.789 104.651 178.637 104.651C178.485 104.651 178.361 104.836 178.361 105.064C178.361 105.293 178.485 105.478 178.637 105.478Z" fill="#FF6584"/>
<path d="M175.328 104.101C175.48 104.101 175.604 103.916 175.604 103.688C175.604 103.459 175.48 103.274 175.328 103.274C175.176 103.274 175.052 103.459 175.052 103.688C175.052 103.916 175.176 104.101 175.328 104.101Z" fill="#FF6584"/>
<path d="M186.082 95.2884C188.519 95.2884 190.494 93.3156 190.494 90.882C190.494 88.4484 188.519 86.4756 186.082 86.4756C183.645 86.4756 181.67 88.4484 181.67 90.882C181.67 93.3156 183.645 95.2884 186.082 95.2884Z" fill="#FF6584"/>
<path opacity="0.2" d="M189.391 91.1572C189.391 92.0337 189.043 92.8743 188.422 93.4941C187.801 94.1138 186.96 94.462 186.082 94.462C185.205 94.462 184.363 94.1138 183.742 93.4941C183.122 92.8743 182.773 92.0337 182.773 91.1572" fill="black"/>
<path opacity="0.2" d="M182.773 90.6065C182.773 89.7301 183.122 88.8895 183.742 88.2697C184.363 87.6499 185.205 87.3018 186.082 87.3018C186.96 87.3018 187.801 87.6499 188.422 88.2697C189.043 88.8895 189.391 89.7301 189.391 90.6065" fill="black"/>
<path d="M184.428 89.7803C184.58 89.7803 184.703 89.5953 184.703 89.3672C184.703 89.1391 184.58 88.9541 184.428 88.9541C184.275 88.9541 184.152 89.1391 184.152 89.3672C184.152 89.5953 184.275 89.7803 184.428 89.7803Z" fill="#FF6584"/>
<path d="M186.082 89.2295C186.234 89.2295 186.358 89.0446 186.358 88.8164C186.358 88.5883 186.234 88.4033 186.082 88.4033C185.93 88.4033 185.806 88.5883 185.806 88.8164C185.806 89.0446 185.93 89.2295 186.082 89.2295Z" fill="#FF6584"/>
<path d="M186.082 92.8096C186.234 92.8096 186.358 92.6246 186.358 92.3965C186.358 92.1683 186.234 91.9834 186.082 91.9834C185.93 91.9834 185.806 92.1683 185.806 92.3965C185.806 92.6246 185.93 92.8096 186.082 92.8096Z" fill="#FF6584"/>
<path d="M187.737 90.6065C187.889 90.6065 188.012 90.4215 188.012 90.1934C188.012 89.9652 187.889 89.7803 187.737 89.7803C187.584 89.7803 187.461 89.9652 187.461 90.1934C187.461 90.4215 187.584 90.6065 187.737 90.6065Z" fill="#FF6584"/>
<path d="M187.461 93.6358C187.613 93.6358 187.737 93.4508 187.737 93.2227C187.737 92.9945 187.613 92.8096 187.461 92.8096C187.309 92.8096 187.185 92.9945 187.185 93.2227C187.185 93.4508 187.309 93.6358 187.461 93.6358Z" fill="#FF6584"/>
<path d="M184.152 92.2588C184.304 92.2588 184.428 92.0739 184.428 91.8457C184.428 91.6176 184.304 91.4326 184.152 91.4326C184 91.4326 183.876 91.6176 183.876 91.8457C183.876 92.0739 184 92.2588 184.152 92.2588Z" fill="#FF6584"/>
<path d="M194.906 101.347C197.343 101.347 199.318 99.3741 199.318 96.9406C199.318 94.507 197.343 92.5342 194.906 92.5342C192.469 92.5342 190.494 94.507 190.494 96.9406C190.494 99.3741 192.469 101.347 194.906 101.347Z" fill="#6318AF"/>
<path opacity="0.2" d="M198.215 97.2158C198.215 98.0923 197.866 98.9329 197.246 99.5527C196.625 100.172 195.784 100.521 194.906 100.521C194.029 100.521 193.187 100.172 192.566 99.5527C191.946 98.9329 191.597 98.0923 191.597 97.2158" fill="black"/>
<path opacity="0.2" d="M191.597 96.6651C191.597 95.7887 191.946 94.9481 192.566 94.3283C193.187 93.7085 194.029 93.3604 194.906 93.3604C195.784 93.3604 196.625 93.7085 197.246 94.3283C197.866 94.9481 198.215 95.7887 198.215 96.6651" fill="black"/>
<path d="M193.252 95.8389C193.404 95.8389 193.527 95.6539 193.527 95.4258C193.527 95.1976 193.404 95.0127 193.252 95.0127C193.099 95.0127 192.976 95.1976 192.976 95.4258C192.976 95.6539 193.099 95.8389 193.252 95.8389Z" fill="#6318AF"/>
<path d="M194.906 95.2881C195.058 95.2881 195.182 95.1032 195.182 94.875C195.182 94.6469 195.058 94.4619 194.906 94.4619C194.754 94.4619 194.63 94.6469 194.63 94.875C194.63 95.1032 194.754 95.2881 194.906 95.2881Z" fill="#6318AF"/>
<path d="M194.906 98.8682C195.058 98.8682 195.182 98.6832 195.182 98.4551C195.182 98.2269 195.058 98.042 194.906 98.042C194.754 98.042 194.63 98.2269 194.63 98.4551C194.63 98.6832 194.754 98.8682 194.906 98.8682Z" fill="#6318AF"/>
<path d="M196.561 96.6651C196.713 96.6651 196.836 96.4801 196.836 96.252C196.836 96.0238 196.713 95.8389 196.561 95.8389C196.408 95.8389 196.285 96.0238 196.285 96.252C196.285 96.4801 196.408 96.6651 196.561 96.6651Z" fill="#6318AF"/>
<path d="M196.285 99.6944C196.437 99.6944 196.561 99.5094 196.561 99.2813C196.561 99.0531 196.437 98.8682 196.285 98.8682C196.132 98.8682 196.009 99.0531 196.009 99.2813C196.009 99.5094 196.132 99.6944 196.285 99.6944Z" fill="#6318AF"/>
<path d="M192.976 98.3174C193.128 98.3174 193.252 98.1325 193.252 97.9043C193.252 97.6762 193.128 97.4912 192.976 97.4912C192.824 97.4912 192.7 97.6762 192.7 97.9043C192.7 98.1325 192.824 98.3174 192.976 98.3174Z" fill="#6318AF"/>
<path d="M172.846 101.898C175.283 101.898 177.258 99.9249 177.258 97.4913C177.258 95.0578 175.283 93.085 172.846 93.085C170.41 93.085 168.434 95.0578 168.434 97.4913C168.434 99.9249 170.41 101.898 172.846 101.898Z" fill="#6318AF"/>
<path opacity="0.2" d="M176.155 97.7666C176.155 98.6431 175.807 99.4837 175.186 100.103C174.566 100.723 173.724 101.071 172.846 101.071C171.969 101.071 171.127 100.723 170.507 100.103C169.886 99.4837 169.537 98.6431 169.537 97.7666" fill="black"/>
<path opacity="0.2" d="M169.537 97.2159C169.537 96.3394 169.886 95.4989 170.507 94.8791C171.127 94.2593 171.969 93.9111 172.846 93.9111C173.724 93.9111 174.566 94.2593 175.186 94.8791C175.807 95.4989 176.155 96.3394 176.155 97.2159" fill="black"/>
<path d="M171.192 96.3897C171.344 96.3897 171.468 96.2047 171.468 95.9766C171.468 95.7484 171.344 95.5635 171.192 95.5635C171.039 95.5635 170.916 95.7484 170.916 95.9766C170.916 96.2047 171.039 96.3897 171.192 96.3897Z" fill="#6318AF"/>
<path d="M172.846 95.8389C172.999 95.8389 173.122 95.6539 173.122 95.4258C173.122 95.1976 172.999 95.0127 172.846 95.0127C172.694 95.0127 172.571 95.1976 172.571 95.4258C172.571 95.6539 172.694 95.8389 172.846 95.8389Z" fill="#6318AF"/>
<path d="M172.846 99.419C172.999 99.419 173.122 99.234 173.122 99.0059C173.122 98.7777 172.999 98.5928 172.846 98.5928C172.694 98.5928 172.571 98.7777 172.571 99.0059C172.571 99.234 172.694 99.419 172.846 99.419Z" fill="#6318AF"/>
<path d="M174.501 97.2158C174.653 97.2158 174.777 97.0309 174.777 96.8027C174.777 96.5746 174.653 96.3896 174.501 96.3896C174.349 96.3896 174.225 96.5746 174.225 96.8027C174.225 97.0309 174.349 97.2158 174.501 97.2158Z" fill="#6318AF"/>
<path d="M174.225 100.245C174.377 100.245 174.501 100.06 174.501 99.832C174.501 99.6039 174.377 99.4189 174.225 99.4189C174.073 99.4189 173.949 99.6039 173.949 99.832C173.949 100.06 174.073 100.245 174.225 100.245Z" fill="#6318AF"/>
<path d="M170.916 98.8682C171.068 98.8682 171.192 98.6832 171.192 98.4551C171.192 98.2269 171.068 98.042 170.916 98.042C170.764 98.042 170.64 98.2269 170.64 98.4551C170.64 98.6832 170.764 98.8682 170.916 98.8682Z" fill="#6318AF"/>
<path d="M182.773 103.825C185.21 103.825 187.185 101.853 187.185 99.4191C187.185 96.9855 185.21 95.0127 182.773 95.0127C180.337 95.0127 178.361 96.9855 178.361 99.4191C178.361 101.853 180.337 103.825 182.773 103.825Z" fill="#6318AF"/>
<path opacity="0.2" d="M186.082 99.6943C186.082 100.128 185.997 100.558 185.83 100.959C185.664 101.36 185.42 101.724 185.113 102.031C184.806 102.338 184.441 102.581 184.04 102.748C183.638 102.914 183.208 102.999 182.773 102.999C182.339 102.999 181.909 102.914 181.507 102.748C181.106 102.581 180.741 102.338 180.434 102.031C180.126 101.724 179.883 101.36 179.716 100.959C179.55 100.558 179.464 100.128 179.464 99.6943" fill="black"/>
<path opacity="0.2" d="M179.464 99.1437C179.464 98.7097 179.55 98.2799 179.716 97.879C179.883 97.478 180.126 97.1137 180.434 96.8068C180.741 96.4999 181.106 96.2565 181.507 96.0904C181.909 95.9244 182.339 95.8389 182.773 95.8389C183.208 95.8389 183.638 95.9244 184.04 96.0904C184.441 96.2565 184.806 96.4999 185.113 96.8068C185.42 97.1137 185.664 97.478 185.83 97.879C185.997 98.2799 186.082 98.7097 186.082 99.1437" fill="black"/>
<path d="M181.119 98.3174C181.271 98.3174 181.395 98.1325 181.395 97.9043C181.395 97.6762 181.271 97.4912 181.119 97.4912C180.966 97.4912 180.843 97.6762 180.843 97.9043C180.843 98.1325 180.966 98.3174 181.119 98.3174Z" fill="#6318AF"/>
<path d="M182.773 97.7666C182.926 97.7666 183.049 97.5817 183.049 97.3535C183.049 97.1254 182.926 96.9404 182.773 96.9404C182.621 96.9404 182.498 97.1254 182.498 97.3535C182.498 97.5817 182.621 97.7666 182.773 97.7666Z" fill="#6318AF"/>
<path d="M182.773 101.347C182.926 101.347 183.049 101.162 183.049 100.934C183.049 100.705 182.926 100.521 182.773 100.521C182.621 100.521 182.498 100.705 182.498 100.934C182.498 101.162 182.621 101.347 182.773 101.347Z" fill="#6318AF"/>
<path d="M184.428 99.1436C184.58 99.1436 184.703 98.9586 184.703 98.7305C184.703 98.5023 184.58 98.3174 184.428 98.3174C184.275 98.3174 184.152 98.5023 184.152 98.7305C184.152 98.9586 184.275 99.1436 184.428 99.1436Z" fill="#6318AF"/>
<path d="M184.152 102.173C184.304 102.173 184.428 101.988 184.428 101.76C184.428 101.532 184.304 101.347 184.152 101.347C184 101.347 183.876 101.532 183.876 101.76C183.876 101.988 184 102.173 184.152 102.173Z" fill="#6318AF"/>
<path d="M180.843 100.796C180.995 100.796 181.119 100.611 181.119 100.383C181.119 100.155 180.995 99.9697 180.843 99.9697C180.691 99.9697 180.567 100.155 180.567 100.383C180.567 100.611 180.691 100.796 180.843 100.796Z" fill="#6318AF"/>
<path d="M189.667 108.507C192.103 108.507 194.079 106.534 194.079 104.101C194.079 101.667 192.103 99.6943 189.667 99.6943C187.23 99.6943 185.255 101.667 185.255 104.101C185.255 106.534 187.23 108.507 189.667 108.507Z" fill="#FF6584"/>
<path opacity="0.2" d="M192.976 104.376C192.976 105.252 192.627 106.093 192.007 106.713C191.386 107.333 190.544 107.681 189.667 107.681C188.789 107.681 187.948 107.333 187.327 106.713C186.707 106.093 186.358 105.252 186.358 104.376" fill="black"/>
<path opacity="0.2" d="M186.358 103.825C186.358 102.949 186.707 102.108 187.327 101.488C187.948 100.869 188.789 100.521 189.667 100.521C190.544 100.521 191.386 100.869 192.007 101.488C192.627 102.108 192.976 102.949 192.976 103.825" fill="black"/>
<path d="M188.012 102.999C188.165 102.999 188.288 102.814 188.288 102.586C188.288 102.358 188.165 102.173 188.012 102.173C187.86 102.173 187.737 102.358 187.737 102.586C187.737 102.814 187.86 102.999 188.012 102.999Z" fill="#FF6584"/>
<path d="M189.667 102.448C189.819 102.448 189.943 102.263 189.943 102.035C189.943 101.807 189.819 101.622 189.667 101.622C189.515 101.622 189.391 101.807 189.391 102.035C189.391 102.263 189.515 102.448 189.667 102.448Z" fill="#FF6584"/>
<path d="M189.667 106.028C189.819 106.028 189.943 105.843 189.943 105.615C189.943 105.387 189.819 105.202 189.667 105.202C189.515 105.202 189.391 105.387 189.391 105.615C189.391 105.843 189.515 106.028 189.667 106.028Z" fill="#FF6584"/>
<path d="M191.321 103.825C191.474 103.825 191.597 103.64 191.597 103.412C191.597 103.184 191.474 102.999 191.321 102.999C191.169 102.999 191.046 103.184 191.046 103.412C191.046 103.64 191.169 103.825 191.321 103.825Z" fill="#FF6584"/>
<path d="M191.046 106.855C191.198 106.855 191.321 106.67 191.321 106.441C191.321 106.213 191.198 106.028 191.046 106.028C190.893 106.028 190.77 106.213 190.77 106.441C190.77 106.67 190.893 106.855 191.046 106.855Z" fill="#FF6584"/>
<path d="M187.737 105.478C187.889 105.478 188.012 105.293 188.012 105.064C188.012 104.836 187.889 104.651 187.737 104.651C187.584 104.651 187.461 104.836 187.461 105.064C187.461 105.293 187.584 105.478 187.737 105.478Z" fill="#FF6584"/>
<path d="M132.929 88.4697C133.575 88.4697 134.099 87.9468 134.099 87.3017C134.099 86.6567 133.575 86.1338 132.929 86.1338C132.284 86.1338 131.76 86.6567 131.76 87.3017C131.76 87.9468 132.284 88.4697 132.929 88.4697Z" fill="#3F3D56"/>
<path d="M164.717 129.695L136.631 121.916L137.707 117.925L165.793 125.704L164.717 129.695Z" fill="#F9A825"/>
<path d="M160.6 128.362C150.982 130.201 141.102 130.201 131.484 128.362V124.225C141.124 125.82 150.96 125.82 160.6 124.225V128.362Z" fill="#F9A825"/>
<path d="M163.593 115.95C153.975 117.789 144.095 117.789 134.478 115.95V111.812C144.117 113.408 153.954 113.408 163.593 111.812V115.95Z" fill="#F9A825"/>
<path d="M173.661 120.915C164.043 122.754 154.163 122.754 144.545 120.915V116.777C154.185 118.373 164.021 118.373 173.661 116.777V120.915Z" fill="#F9A825"/>
<path d="M176.11 125.603C166.492 127.442 156.612 127.442 146.994 125.603V121.466C156.634 123.061 166.47 123.061 176.11 121.466V125.603Z" fill="#F9A825"/>
<path d="M184.648 131.73L155.923 136.549L155.257 132.467L183.981 127.648L184.648 131.73Z" fill="#F9A825"/>
<path d="M180.357 132.261C172.393 137.995 163.418 142.176 153.901 144.585L152.197 140.825C161.63 138.187 170.567 134.025 178.653 128.502L180.357 132.261Z" fill="#F9A825"/>
<path d="M177.964 119.716C170 125.449 161.024 129.63 151.508 132.039L149.804 128.28C159.237 125.641 168.174 121.479 176.259 115.956L177.964 119.716Z" fill="#F9A825"/>
<path d="M189.157 119.966C181.194 125.699 172.218 129.88 162.702 132.289L160.997 128.53C170.43 125.891 179.367 121.729 187.453 116.206L189.157 119.966Z" fill="#F9A825"/>
<path d="M193.314 123.19C185.35 128.924 176.375 133.105 166.858 135.514L165.154 131.754C174.587 129.116 183.524 124.953 191.61 119.431L193.314 123.19Z" fill="#F9A825"/>
<path d="M158.507 115.117H157.129V116.494H158.507V115.117Z" fill="#00BF71"/>
<path d="M162.644 139.076H161.265V140.453H162.644V139.076Z" fill="#00BF71"/>
<path d="M140.584 115.117H139.205V116.494H140.584V115.117Z" fill="#00BF71"/>
<path d="M172.571 132.191H171.192V133.568H172.571V132.191Z" fill="#00BF71"/>
<path d="M173.398 124.205H172.019V125.582H173.398V124.205Z" fill="#00BF71"/>
<path d="M150.654 120.435L149.057 119.353L148.437 120.264L150.035 121.346L150.654 120.435Z" fill="#00BF71"/>
<path d="M166.923 123.464L165.326 122.382L164.706 123.293L166.304 124.376L166.923 123.464Z" fill="#00BF71"/>
<path d="M147.069 128.697L145.472 127.614L144.853 128.526L146.45 129.608L147.069 128.697Z" fill="#00BF71"/>
<path d="M157.181 128.617L158.265 127.021L157.352 126.403L156.268 127.998L157.181 128.617Z" fill="#00BF71"/>
<path d="M164.626 130.544L165.71 128.949L164.797 128.331L163.714 129.926L164.626 130.544Z" fill="#00BF71"/>
<path d="M184.482 123.934L185.566 122.339L184.653 121.72L183.569 123.316L184.482 123.934Z" fill="#00BF71"/>
<path opacity="0.1" d="M157.665 185.168C220.993 185.168 272.33 183.34 272.33 181.084C272.33 178.828 220.993 177 157.665 177C94.3374 177 43 178.828 43 181.084C43 183.34 94.3374 185.168 157.665 185.168Z" fill="#6318AF"/>
<defs>
<linearGradient id="paint0_linear_1_3542" x1="40.1822" y1="134.865" x2="52.6574" y2="161.619" gradientUnits="userSpaceOnUse">
<stop stop-color="#F7E5B7"/>
<stop offset="1" stop-color="#F7E5B7"/>
</linearGradient>
</defs>
</svg>
